<svg width="409" height="172" viewBox="0 0 409 172" fill="none" xmlns="http://www.w3.org/2000/svg">
<g clip-path="url(#clip0_22_13)">
<g filter="url(#filter0_d_22_13)">
<ellipse cx="204.497" cy="85.9994" rx="203.5" ry="85" fill="#464877"/>
</g>
<ellipse cx="221.997" cy="86.9993" rx="177" ry="73" fill="#444288"/>
<ellipse cx="241.498" cy="85.9987" rx="144.5" ry="63" fill="#4A489D"/>
<ellipse cx="261.999" cy="86.4987" rx="113" ry="48.5" fill="#514FB4"/>
<path d="M211.639 52.7987C219.767 52.7987 225.783 54.1427 229.687 56.8307C233.655 59.4547 235.639 64.1267 235.639 70.8467C235.639 77.5667 233.687 82.9107 229.783 86.8787C225.879 90.7827 219.575 92.7347 210.871 92.7347H202.807L202.519 113.567L210.007 114.239C210.007 116.031 209.463 117.951 208.375 119.999H186.775L186.487 116.735C189.175 115.711 191.927 114.943 194.743 114.431C194.359 89.4707 194.039 70.9107 193.783 58.7507C192.055 58.4307 189.239 57.6627 185.335 56.4467L185.815 52.7987H211.639ZM209.911 86.4947C215.415 86.4307 219.607 85.0547 222.487 82.3667C225.367 79.6147 226.807 75.9987 226.807 71.5187C226.807 67.0387 225.399 63.9347 222.583 62.2067C219.767 60.4147 215.255 59.5187 209.047 59.5187C207.895 59.5187 205.943 59.5507 203.191 59.6147C203.191 59.6787 203.095 68.6707 202.903 86.5907L209.911 86.4947ZM258.026 81.5027L289.322 81.5987C289.194 73.7907 289.002 66.0787 288.746 58.4627C286.378 58.0147 283.53 57.2467 280.202 56.1587L280.49 52.7987H304.49C305.578 54.8467 306.122 56.7667 306.122 58.5587C302.922 58.8147 300.362 58.9427 298.442 58.9427L297.386 113.471L305.45 114.239C305.45 116.031 304.906 117.951 303.818 119.999H281.738L281.45 116.639C284.458 115.615 287.402 114.847 290.282 114.335L289.514 87.6467H257.834C257.706 99.1667 257.642 107.775 257.642 113.471L265.706 114.239C265.706 116.031 265.162 117.951 264.074 119.999H241.994L241.706 116.639C244.714 115.615 247.658 114.847 250.538 114.335C249.898 89.5027 249.386 70.8787 249.002 58.4627C246.634 58.0147 243.786 57.2467 240.458 56.1587L240.746 52.7987H264.746C265.834 54.8467 266.378 56.7667 266.378 58.5587C263.178 58.8147 260.618 58.9427 258.698 58.9427C258.506 63.8067 258.282 71.3267 258.026 81.5027ZM343.959 58.7507C343.639 69.5027 343.287 87.7427 342.903 113.471L350.967 114.239C350.967 116.031 350.423 117.951 349.335 119.999H327.255L326.967 116.639C330.679 115.295 333.623 114.527 335.799 114.335C335.159 89.6307 334.647 71.1027 334.263 58.7507H320.247L317.943 68.5427L312.375 68.1587C311.415 64.2547 310.935 60.2867 310.935 56.2547C310.935 55.4867 310.999 54.3347 311.127 52.7987H366.423C366.551 53.6307 366.615 54.9107 366.615 56.6387C366.615 60.0947 366.167 63.8707 365.271 67.9667C363.863 68.3507 362.007 68.5427 359.703 68.5427L357.303 58.7507H343.959Z" fill="white"/>
</g>
<defs>
<filter id="filter0_d_22_13" x="-3.00293" y="0.999374" width="415" height="178" filterUnits="userSpaceOnUse" color-interpolation-filters="sRGB">
<feFlood flood-opacity="0" result="BackgroundImageFix"/>
<feColorMatrix in="SourceAlpha" type="matrix" values="0 0 0 0 0 0 0 0 0 0 0 0 0 0 0 0 0 0 127 0" result="hardAlpha"/>
<feOffset dy="4"/>
<feGaussianBlur stdDeviation="2"/>
<feComposite in2="hardAlpha" operator="out"/>
<feColorMatrix type="matrix" values="0 0 0 0 0 0 0 0 0 0 0 0 0 0 0 0 0 0 0.25 0"/>
<feBlend mode="normal" in2="BackgroundImageFix" result="effect1_dropShadow_22_13"/>
<feBlend mode="normal" in="SourceGraphic" in2="effect1_dropShadow_22_13" result="shape"/>
</filter>
<clipPath id="clip0_22_13">
<rect width="409" height="172" fill="white"/>
</clipPath>
</defs>
</svg>
